<svg width="869" height="475" viewBox="0 0 869 475" fill="none" xmlns="http://www.w3.org/2000/svg">
<g id="undraw_Chat_bot_re_e2gj 1" clip-path="url(#clip0)">
<g id="Flower">
<path id="Leaf2" d="M47.4591 432.283C28.9416 448.072 25.0982 473.97 25.0982 473.97C25.0982 473.97 51.2774 474.267 69.7949 458.477C88.3123 442.687 92.1557 416.79 92.1557 416.79C92.1557 416.79 65.9765 416.493 47.4591 432.283Z" fill="#F2F2F2"/>
<path id="Leaf1" d="M56.0158 438.565C48.128 461.586 25.4508 474.67 25.4508 474.67C25.4508 474.67 15.5621 450.429 23.4499 427.407C31.3376 404.385 54.0148 391.302 54.0148 391.302C54.0148 391.302 63.9035 415.543 56.0158 438.565Z" fill="#F2F2F2"/>
</g>
<g id="Laptop">
<path id="LaptopBorder" d="M824.886 76.5841H323.292C319.631 76.5841 316.119 78.0387 313.53 80.6278C310.941 83.2169 309.486 86.7285 309.486 90.3901V369.869C309.486 373.53 310.941 377.042 313.53 379.631C316.119 382.22 319.631 383.675 323.292 383.675H824.886C828.548 383.675 832.059 382.22 834.648 379.631C837.237 377.042 838.692 373.53 838.692 369.869V90.3901C838.692 86.7285 837.237 83.2169 834.648 80.6278C832.059 78.0387 828.548 76.5841 824.886 76.5841V76.5841Z" fill="#3F3D56"/>
<path id="LaptopScreen" d="M820.182 100.983H327.996V378.627H820.182V100.983Z" fill="white"/>
<path id="LaptopCam" d="M573.668 93.4109C576.456 93.4109 578.716 91.1509 578.716 88.3629C578.716 85.5749 576.456 83.3148 573.668 83.3148C570.88 83.3148 568.62 85.5749 568.62 88.3629C568.62 91.1509 570.88 93.4109 573.668 93.4109Z" fill="white"/>
<path id="LaptopScreenShadow" d="M679.425 378.627H327.996V100.983L679.425 378.627Z" fill="#F2F2F2"/>
<path id="LaptopKeyboard" d="M852.511 373.579H804.477V370.118C804.477 369.936 804.405 369.761 804.276 369.633C804.148 369.504 803.973 369.432 803.791 369.432H787.322C787.232 369.432 787.143 369.449 787.059 369.484C786.976 369.518 786.9 369.569 786.837 369.633C786.773 369.696 786.723 369.772 786.688 369.855C786.654 369.938 786.636 370.028 786.636 370.118V373.579H776.343V370.118C776.343 370.028 776.325 369.938 776.291 369.855C776.256 369.772 776.206 369.696 776.142 369.633C776.078 369.569 776.003 369.518 775.919 369.484C775.836 369.449 775.747 369.432 775.657 369.432H759.188C759.098 369.432 759.009 369.449 758.925 369.484C758.842 369.518 758.766 369.569 758.703 369.633C758.639 369.696 758.588 369.772 758.554 369.855C758.519 369.938 758.502 370.028 758.502 370.118V370.118V373.579H748.209V370.118C748.209 370.028 748.191 369.938 748.156 369.855C748.122 369.772 748.071 369.696 748.008 369.633C747.944 369.569 747.868 369.518 747.785 369.484C747.702 369.449 747.613 369.432 747.522 369.432H731.053C730.963 369.432 730.874 369.449 730.791 369.484C730.708 369.518 730.632 369.569 730.568 369.633C730.505 369.696 730.454 369.772 730.42 369.855C730.385 369.938 730.367 370.028 730.367 370.118V370.118V373.579H720.074V370.118C720.074 370.028 720.057 369.938 720.022 369.855C719.988 369.772 719.937 369.696 719.873 369.633C719.81 369.569 719.734 369.518 719.651 369.484C719.567 369.449 719.478 369.432 719.388 369.432H702.919C702.829 369.432 702.74 369.449 702.657 369.484C702.573 369.518 702.498 369.569 702.434 369.633C702.37 369.696 702.32 369.772 702.285 369.855C702.251 369.938 702.233 370.028 702.233 370.118V373.579H691.94V370.118C691.94 370.028 691.922 369.938 691.888 369.855C691.853 369.772 691.803 369.696 691.739 369.633C691.675 369.569 691.6 369.518 691.516 369.484C691.433 369.449 691.344 369.432 691.254 369.432H674.785C674.695 369.432 674.606 369.449 674.522 369.484C674.439 369.518 674.363 369.569 674.3 369.633C674.236 369.696 674.185 369.772 674.151 369.855C674.116 369.938 674.099 370.028 674.099 370.118V370.118V373.579H663.806V370.118C663.806 370.028 663.788 369.938 663.753 369.855C663.719 369.772 663.668 369.696 663.605 369.633C663.541 369.569 663.465 369.518 663.382 369.484C663.299 369.449 663.21 369.432 663.119 369.432H646.651C646.56 369.432 646.471 369.449 646.388 369.484C646.305 369.518 646.229 369.569 646.165 369.633C646.102 369.696 646.051 369.772 646.017 369.855C645.982 369.938 645.964 370.028 645.964 370.118V370.118V373.579H635.671V370.118C635.671 370.028 635.654 369.938 635.619 369.855C635.585 369.772 635.534 369.696 635.47 369.633C635.407 369.569 635.331 369.518 635.248 369.484C635.165 369.449 635.075 369.432 634.985 369.432H505.979C505.889 369.432 505.8 369.449 505.716 369.484C505.633 369.518 505.558 369.569 505.494 369.633C505.43 369.696 505.38 369.772 505.345 369.855C505.311 369.938 505.293 370.028 505.293 370.118V370.118V373.579H495V370.118C495 370.028 494.982 369.938 494.948 369.855C494.913 369.772 494.863 369.696 494.799 369.633C494.735 369.569 494.659 369.518 494.576 369.484C494.493 369.449 494.404 369.432 494.314 369.432H477.845C477.755 369.432 477.665 369.449 477.582 369.484C477.499 369.518 477.423 369.569 477.36 369.633C477.296 369.696 477.245 369.772 477.211 369.855C477.176 369.938 477.159 370.028 477.159 370.118V370.118V373.579H466.866V370.118C466.866 370.028 466.848 369.938 466.813 369.855C466.779 369.772 466.728 369.696 466.665 369.633C466.601 369.569 466.525 369.518 466.442 369.484C466.359 369.449 466.269 369.432 466.179 369.432H449.71C449.62 369.432 449.531 369.449 449.448 369.484C449.365 369.518 449.289 369.569 449.225 369.633C449.161 369.696 449.111 369.772 449.076 369.855C449.042 369.938 449.024 370.028 449.024 370.118V370.118V373.579H438.731V370.118C438.731 370.028 438.713 369.938 438.679 369.855C438.644 369.772 438.594 369.696 438.53 369.633C438.466 369.569 438.391 369.518 438.308 369.484C438.224 369.449 438.135 369.432 438.045 369.432H421.576C421.486 369.432 421.397 369.449 421.314 369.484C421.23 369.518 421.155 369.569 421.091 369.633C421.027 369.696 420.977 369.772 420.942 369.855C420.908 369.938 420.89 370.028 420.89 370.118V370.118V373.579H410.597V370.118C410.597 370.028 410.579 369.938 410.545 369.855C410.51 369.772 410.46 369.696 410.396 369.633C410.332 369.569 410.257 369.518 410.173 369.484C410.09 369.449 410.001 369.432 409.911 369.432H393.442C393.352 369.432 393.262 369.449 393.179 369.484C393.096 369.518 393.02 369.569 392.957 369.633C392.893 369.696 392.842 369.772 392.808 369.855C392.773 369.938 392.756 370.028 392.756 370.118V370.118V373.579H382.462V370.118C382.462 370.028 382.445 369.938 382.41 369.855C382.376 369.772 382.325 369.696 382.262 369.633C382.198 369.569 382.122 369.518 382.039 369.484C381.956 369.449 381.866 369.432 381.776 369.432H365.307C365.125 369.432 364.951 369.504 364.822 369.633C364.694 369.761 364.621 369.936 364.621 370.118V373.579H354.328V370.118C354.328 370.028 354.311 369.938 354.276 369.855C354.242 369.772 354.191 369.696 354.127 369.633C354.064 369.569 353.988 369.518 353.905 369.484C353.821 369.449 353.732 369.432 353.642 369.432H337.173C336.991 369.432 336.817 369.504 336.688 369.633C336.559 369.761 336.487 369.936 336.487 370.118V373.579H304.922C302.759 373.579 300.617 374.005 298.619 374.832C296.621 375.66 294.806 376.873 293.276 378.402C291.747 379.932 290.534 381.747 289.706 383.745C288.879 385.743 288.453 387.885 288.453 390.048V397.494C288.453 401.862 290.188 406.051 293.276 409.14C296.365 412.228 300.554 413.963 304.922 413.963H852.511C856.879 413.963 861.068 412.228 864.157 409.14C867.245 406.051 868.98 401.862 868.98 397.494V390.048C868.98 387.885 868.554 385.743 867.727 383.745C866.899 381.747 865.686 379.932 864.157 378.402C862.627 376.873 860.812 375.66 858.814 374.832C856.816 374.005 854.674 373.579 852.511 373.579V373.579Z" fill="#3F3D56"/>
</g>
<g id="Bot">
<path id="BotFootLeft" d="M583.557 342.221C583.392 342.611 583.207 342.993 583.003 343.364C581.929 345.346 580.412 347.053 578.57 348.351C576.388 349.886 573.827 350.793 571.166 350.972C568.505 351.151 565.845 350.596 563.478 349.367C561.111 348.139 559.126 346.283 557.741 344.004C556.356 341.724 555.624 339.108 555.624 336.441V334.09H557.618C565.368 339.1 574.334 341.91 583.557 342.221Z" fill="#3F3D56"/>
<path id="BotFootRight" d="M612.021 334.778V336.441C612.022 339.677 610.945 342.821 608.959 345.377C606.974 347.933 604.194 349.755 601.058 350.554C597.922 351.353 594.609 351.085 591.642 349.791C588.676 348.498 586.225 346.253 584.676 343.411C584.463 343.031 584.27 342.639 584.099 342.238C584.525 342.25 584.945 342.256 585.371 342.256C594.773 342.267 603.996 339.679 612.021 334.778V334.778Z" fill="#3F3D56"/>
<path id="BotEarRight" d="M631.642 158.991C631.204 158.927 630.761 158.886 630.318 158.857C635.355 170.466 635.704 183.573 631.292 195.434C631.735 195.381 632.173 195.311 632.61 195.23C636.882 194.402 640.721 192.086 643.445 188.692C646.168 185.299 647.599 181.05 647.483 176.7C647.367 172.35 645.711 168.183 642.81 164.94C639.909 161.698 635.951 159.589 631.642 158.991V158.991Z" fill="#3F3D56"/>
<path id="BotEarLeft" d="M540.424 158.857C539.98 158.886 539.537 158.927 539.1 158.991C534.79 159.589 530.832 161.698 527.932 164.941C525.031 168.183 523.375 172.351 523.259 176.7C523.142 181.049 524.573 185.299 527.297 188.692C530.02 192.085 533.86 194.402 538.131 195.23C538.569 195.311 539.006 195.381 539.449 195.434C535.037 183.573 535.387 170.466 540.424 158.857V158.857Z" fill="#3F3D56"/>
<path id="BotHead" d="M631.642 158.991C626.837 147.513 617.937 138.231 606.671 132.948C595.405 127.666 582.577 126.759 570.68 130.405C558.783 134.051 548.667 141.989 542.295 152.677C535.924 163.365 533.752 176.04 536.203 188.239C538.654 200.438 545.553 211.291 555.558 218.689C565.563 226.086 577.961 229.501 590.343 228.269C602.725 227.037 614.207 221.246 622.558 212.022C630.909 202.798 635.533 190.799 635.532 178.356C635.53 171.707 634.208 165.125 631.642 158.991ZM631.292 195.434C627.025 206.903 618.62 216.36 607.731 221.942C596.842 227.525 584.258 228.83 572.455 225.6C560.652 222.37 550.485 214.84 543.956 204.49C537.427 194.14 535.008 181.722 537.176 169.679C539.344 157.635 545.941 146.839 555.669 139.416C565.397 131.992 577.551 128.479 589.74 129.567C601.928 130.655 613.268 136.266 621.527 145.296C629.786 154.325 634.366 166.119 634.366 178.356C634.364 184.186 633.323 189.969 631.292 195.434V195.434Z" fill="#3F3D56"/>
<path id="BotEyes" d="M611.035 166.982H559.707C557 166.982 554.403 168.057 552.489 169.971C550.575 171.886 549.499 174.482 549.499 177.189C549.499 179.896 550.575 182.493 552.489 184.407C554.403 186.321 557 187.396 559.707 187.396H611.035C613.742 187.396 616.338 186.321 618.253 184.407C620.167 182.493 621.242 179.896 621.242 177.189C621.242 174.482 620.167 171.886 618.253 169.971C616.338 168.057 613.742 166.982 611.035 166.982V166.982Z" fill="#3F3D56"/>
<path id="BotBody" d="M631.292 265.52C631.105 265.176 630.913 264.838 630.714 264.505C630.709 264.494 630.703 264.488 630.697 264.476C626.108 256.62 619.554 250.092 611.68 245.533C603.806 240.974 594.882 238.541 585.784 238.473C576.685 238.404 567.726 240.702 559.784 245.142C551.842 249.582 545.191 256.01 540.484 263.796C535.776 271.582 533.174 280.459 532.933 289.554C532.692 298.649 534.82 307.651 539.108 315.676C543.396 323.7 549.697 330.472 557.393 335.326C565.088 340.181 573.913 342.951 583.003 343.364C583.557 343.393 584.117 343.411 584.676 343.411C584.91 343.422 585.137 343.422 585.371 343.422C594.748 343.436 603.955 340.919 612.021 336.137C620.782 330.952 627.859 323.347 632.4 314.235C632.406 314.224 632.412 314.218 632.418 314.206C632.593 313.856 632.762 313.5 632.931 313.139C636.439 305.636 638.119 297.41 637.835 289.133C637.55 280.855 635.308 272.764 631.292 265.52H631.292ZM631.794 312.818C631.624 313.18 631.449 313.535 631.269 313.885C626.93 322.511 620.262 329.749 612.021 334.778C603.996 339.679 594.773 342.267 585.371 342.256C584.945 342.256 584.525 342.25 584.099 342.238C583.918 342.238 583.737 342.233 583.557 342.221C574.651 341.91 565.98 339.285 558.396 334.606C550.813 329.926 544.578 323.353 540.306 315.533C536.034 307.712 533.871 298.915 534.031 290.005C534.191 281.095 536.668 272.381 541.218 264.719C545.768 257.057 552.234 250.712 559.981 246.307C567.727 241.903 576.487 239.591 585.398 239.6C594.309 239.608 603.065 241.936 610.803 246.355C618.541 250.775 624.995 257.132 629.531 264.803C629.536 264.814 629.542 264.82 629.548 264.832C629.752 265.164 629.95 265.503 630.137 265.841C634.14 272.972 636.379 280.956 636.667 289.128C636.955 297.301 635.284 305.423 631.794 312.818Z" fill="#3F3D56"/>
<g id="Dots">
<path id="DotGroup" d="M625.716 267.072C624.694 266.344 623.471 265.95 622.216 265.946H599.276C597.678 265.946 596.145 266.581 595.015 267.711C593.885 268.841 593.251 270.373 593.251 271.971C593.251 273.569 593.885 275.102 595.015 276.232C596.145 277.362 597.678 277.997 599.276 277.997H622.216C622.626 277.998 623.034 277.957 623.435 277.874C623.834 277.788 624.225 277.665 624.602 277.507C625.582 277.084 626.433 276.408 627.067 275.549C627.7 274.689 628.094 273.677 628.207 272.615C628.321 271.553 628.15 270.48 627.712 269.506C627.274 268.532 626.585 267.692 625.716 267.072L625.716 267.072Z" fill="#3F3D56"/>
<path id="Dot03" d="M600.803 275.03C602.493 275.03 603.862 273.66 603.862 271.971C603.862 270.282 602.493 268.912 600.803 268.912C599.114 268.912 597.744 270.282 597.744 271.971C597.744 273.66 599.114 275.03 600.803 275.03Z" fill="#F1F1F1"/>
<path id="Dot02" d="M610.745 275.03C612.434 275.03 613.804 273.66 613.804 271.971C613.804 270.282 612.434 268.912 610.745 268.912C609.055 268.912 607.686 270.282 607.686 271.971C607.686 273.66 609.055 275.03 610.745 275.03Z" fill="#F1F1F1"/>
<path id="Dot01" d="M620.686 275.03C622.376 275.03 623.745 273.66 623.745 271.971C623.745 270.282 622.376 268.912 620.686 268.912C618.997 268.912 617.628 270.282 617.628 271.971C617.628 273.66 618.997 275.03 620.686 275.03Z" fill="#D65108"/>
</g>
</g>
<g id="ChatBubble">
<path id="ChatBubbleFill" d="M735.897 171.153C727.942 175.924 713.769 181.902 699.286 175.759L689.923 171.787L708.685 150.756C693.713 134.248 685.431 112.754 685.453 90.469C685.476 68.1837 693.803 46.7066 708.808 30.2298C723.813 13.7531 744.42 3.45935 766.606 1.3578C788.792 -0.743745 810.965 5.49775 828.797 18.864C846.629 32.2303 858.84 51.762 863.047 73.6467C867.254 95.5314 863.154 118.198 851.549 137.223C839.943 156.248 821.664 170.265 800.28 176.539C778.896 182.813 755.941 180.893 735.897 171.153V171.153Z" fill="white"/>
<path id="ChatBubble_2" d="M735.946 172.287C728.302 176.775 713.741 182.977 698.895 176.679L688.248 172.163L707.343 150.758C695.462 137.395 687.802 120.814 685.326 103.105C682.85 85.3965 685.67 67.351 693.43 51.2414C701.19 35.1319 713.543 21.6787 728.934 12.5762C744.325 3.47369 762.065 -0.871076 779.92 0.0890504C797.776 1.04918 814.948 7.27126 829.274 17.9717C843.6 28.6722 854.439 43.3725 860.427 60.2213C866.415 77.0701 867.283 95.314 862.923 112.655C858.562 129.997 849.168 145.66 835.923 157.673V157.673C822.621 169.81 805.99 177.688 788.173 180.292C770.355 182.897 752.165 180.109 735.946 172.287H735.946ZM840.686 31.0373C832.87 22.4152 823.432 15.4173 812.911 10.4433C802.391 5.46917 790.993 2.61635 779.37 2.04773C767.746 1.47911 756.125 3.20582 745.169 7.12926C734.213 11.0527 724.137 17.096 715.517 24.914C706.897 32.732 699.902 42.1715 694.93 52.6935C689.959 63.2154 687.109 74.6137 686.543 86.2372C685.977 97.8608 687.707 109.482 691.633 120.437C695.559 131.392 701.605 141.466 709.425 150.084L710.03 150.751L691.598 171.412L699.676 174.838C714.014 180.92 728.201 174.602 735.383 170.296L735.847 170.017L736.334 170.254C754.845 179.248 775.911 181.518 795.913 176.673C815.916 171.828 833.608 160.171 845.952 143.703C858.296 127.234 864.522 106.982 863.561 86.4237C862.6 65.865 854.512 46.2823 840.686 31.0373L840.686 31.0373Z" fill="#D65108"/>
<path id="ChatShadow" opacity="0.1" d="M850.699 90.0023C850.698 69.3957 842.981 49.5363 829.069 34.335C815.156 19.1338 796.056 9.6924 775.53 7.87022C777.932 7.65982 780.362 7.54599 782.818 7.54599C804.678 7.55918 825.639 16.2523 841.091 31.7144C856.544 47.1766 865.225 68.1421 865.225 90.0023C865.225 111.862 856.544 132.828 841.091 148.29C825.639 163.752 804.678 172.445 782.818 172.459C780.366 172.459 777.94 172.343 775.542 172.133C796.066 170.308 815.162 160.866 829.072 145.665C842.982 130.465 850.698 110.607 850.699 90.0023Z" fill="black"/>
<path id="ChatLine3" d="M786.691 73.5594H727.772V79.0309H786.691V73.5594Z" fill="#D65108"/>
<path id="ChatLine2" d="M830.464 92.4872H727.772V97.9587H830.464V92.4872Z" fill="#D65108"/>
<path id="ChatLine1" d="M830.363 111.415H727.772V116.887H830.363V111.415Z" fill="#D65108"/>
</g>
<path id="GroundPerson" d="M382 473.194H1C0.734784 473.194 0.480429 473.089 0.292892 472.901C0.105356 472.714 0 472.459 0 472.194C0 471.929 0.105356 471.674 0.292892 471.487C0.480429 471.299 0.734784 471.194 1 471.194H382C382.265 471.194 382.52 471.299 382.707 471.487C382.895 471.674 383 471.929 383 472.194C383 472.459 382.895 472.714 382.707 472.901C382.52 473.089 382.265 473.194 382 473.194Z" fill="#CBCBCB"/>
<g id="Person">
<path id="Hair" d="M249.301 97.9604C245.111 92.5314 239.19 87.5081 238.815 80.8088C238.471 74.6644 243.052 68.5638 241.12 62.6854C239.634 58.1656 234.733 55.4383 229.943 53.9941C220.774 51.2688 210.961 51.6466 202.028 55.0688L202.513 54.7269C197.061 52.7848 190.688 54.7897 186.398 58.5032C182.108 62.2167 179.559 67.364 177.581 72.5221C175.602 77.6802 174.069 83.0271 171.321 87.8629C168.572 92.6987 164.363 97.0964 158.811 98.7677C160.67 102.476 166.481 103.748 169.889 101.193C170.759 100.486 171.542 99.6765 172.22 98.7829C174.493 96.0189 176.766 93.2549 179.039 90.4909C181.378 94.6507 177.884 100.392 180.759 104.243C182.241 106.229 184.949 106.983 187.464 107.524C207.117 111.718 227.505 110.962 246.795 105.324C248.345 104.867 250.055 104.238 250.698 102.834C251.441 101.214 250.402 99.388 249.301 97.9604Z" fill="#2F2E41"/>
<path id="ArmRight" d="M305.028 119.147C304.906 119.687 304.826 120.235 304.789 120.787L261.832 145.569L251.39 139.558L240.259 154.131L257.709 166.568C259.119 167.573 260.817 168.093 262.547 168.051C264.278 168.009 265.948 167.406 267.307 166.334L311.604 131.388C313.603 132.128 315.78 132.242 317.845 131.715C319.911 131.187 321.767 130.044 323.166 128.436C324.566 126.828 325.442 124.832 325.68 122.713C325.917 120.595 325.504 118.455 324.495 116.577C323.487 114.699 321.93 113.173 320.033 112.201C318.135 111.229 315.987 110.858 313.874 111.137C311.761 111.416 309.782 112.332 308.202 113.763C306.622 115.194 305.515 117.072 305.028 119.147Z" fill="#FFB7B7"/>
<path id="ArmelRight" d="M260.395 146.743L246.512 164.737C246.117 165.249 245.616 165.67 245.044 165.971C244.471 166.272 243.841 166.446 243.195 166.481C242.549 166.517 241.904 166.412 241.302 166.176C240.7 165.939 240.156 165.575 239.708 165.11L223.99 148.788C221.379 146.754 219.681 143.766 219.27 140.481C218.86 137.196 219.769 133.882 221.799 131.267C223.829 128.651 226.814 126.949 230.098 126.532C233.383 126.115 236.698 127.019 239.317 129.044L259.03 140.067C259.594 140.383 260.084 140.817 260.466 141.339C260.847 141.861 261.112 142.459 261.241 143.092C261.371 143.726 261.363 144.38 261.217 145.01C261.071 145.64 260.791 146.231 260.396 146.743H260.395Z" fill="#D65108"/>
<path id="LegRight" d="M241.288 460.267L253.548 460.266L259.38 412.978L241.286 412.979L241.288 460.267Z" fill="#FFB7B7"/>
<path id="FootRight" d="M238.16 456.264L262.305 456.263H262.306C266.386 456.263 270.3 457.884 273.185 460.77C276.071 463.655 277.692 467.569 277.692 471.649V472.149L238.161 472.151L238.16 456.264Z" fill="#2F2E41"/>
<path id="Legleft" d="M157.288 460.267L169.548 460.266L175.38 412.978L157.286 412.979L157.288 460.267Z" fill="#FFB7B7"/>
<path id="FootLeft" d="M154.16 456.264L178.305 456.263H178.306C182.386 456.263 186.3 457.884 189.185 460.77C192.071 463.655 193.692 467.569 193.692 471.649V472.149L154.161 472.151L154.16 456.264Z" fill="#2F2E41"/>
<path id="Head" d="M233.925 91.2754C235.202 79.6436 226.808 69.179 215.176 67.9021C203.544 66.6253 193.079 75.0197 191.803 86.6515C190.526 98.2834 198.92 108.748 210.552 110.025C222.184 111.302 232.648 102.907 233.925 91.2754Z" fill="#FFB7B7"/>
<path id="Body" d="M225.261 120.726L237.744 126.91C237.744 126.91 251.69 151.147 243.69 174.147C239.806 185.314 250.744 220.91 250.744 220.91C250.744 220.91 267.69 382.147 267.744 431.91C246.69 435.147 226.69 439.147 225.69 429.147C224.69 419.147 213.744 300.91 213.744 300.91C213.744 300.91 198.69 432.147 186.69 434.147C174.69 436.147 150.69 433.147 150.69 433.147C150.69 433.147 169.744 240.91 182.744 228.91L184.744 218.91L184.69 129.147L199.668 122L225.261 120.726Z" fill="#2F2E41"/>
<path id="ArmLeft" d="M180.608 256.997C181.99 256.249 183.19 255.208 184.126 253.947C185.061 252.685 185.708 251.234 186.022 249.695C186.336 248.156 186.308 246.567 185.942 245.04C185.575 243.513 184.878 242.085 183.9 240.856L198.416 144.094L179.45 143.184L168.134 239.545C166.179 241.326 164.945 243.761 164.666 246.391C164.387 249.02 165.082 251.66 166.62 253.812C168.158 255.963 170.431 257.475 173.009 258.062C175.587 258.649 178.291 258.27 180.608 256.997V256.997Z" fill="#FFB7B7"/>
<path id="ArmelLeft" d="M198.004 168.339L175.322 166.907C174.676 166.866 174.047 166.687 173.478 166.381C172.908 166.076 172.411 165.651 172.02 165.135C171.629 164.62 171.354 164.027 171.213 163.396C171.072 162.764 171.069 162.11 171.204 161.478L175.93 139.318C176.157 136.016 177.684 132.94 180.175 130.762C182.667 128.585 185.921 127.485 189.223 127.703C192.524 127.921 195.605 129.44 197.788 131.926C199.972 134.412 201.081 137.663 200.871 140.966L202.772 163.471C202.826 164.115 202.741 164.764 202.522 165.372C202.303 165.981 201.955 166.535 201.503 166.997C201.05 167.459 200.504 167.818 199.9 168.05C199.296 168.281 198.65 168.38 198.004 168.339L198.004 168.339Z" fill="#D65108"/>
<path id="Pony" d="M235.07 75.1905C234.245 71.4451 231.563 68.342 228.474 66.0693C223.381 62.323 217.136 60.4813 210.825 60.8651C204.514 61.2489 198.538 63.8337 193.937 68.1695C191.366 70.4404 189.512 73.4112 188.603 76.7187C188.169 78.3719 188.146 80.106 188.535 81.7701C188.925 83.4343 189.715 84.978 190.838 86.2668L191.261 86.532C190.877 84.904 192.142 83.2772 193.652 82.559C195.224 81.9823 196.864 81.6146 198.531 81.4652C201.053 80.9885 203.444 79.976 205.541 78.4961C207.638 77.0162 209.393 75.1033 210.688 72.8868C211.647 75.6148 213.179 78.1059 215.181 80.1924C217.183 82.2789 219.609 83.9125 222.295 84.9834C225.095 86.0784 232.787 87.5844 235.453 86.194C238.854 84.4207 235.896 78.9359 235.07 75.1905Z" fill="#2F2E41"/>
</g>
</g>
<defs>
<clipPath id="clip0">
<rect width="868.98" height="474.67" fill="white"/>
</clipPath>
</defs>
</svg>
