<svg width="873" height="529" viewBox="0 0 873 529" fill="none" xmlns="http://www.w3.org/2000/svg">
<g id="undraw_Landing_page_re_6xev 1" clip-path="url(#clip0)">
<g id="Window">
<path id="WindowBorder" d="M859.389 1.46379e-08H252.389C250.077 0.00210249 247.86 0.921496 246.225 2.55637C244.59 4.19124 243.671 6.40797 243.669 8.71999V420.04C243.671 422.352 244.59 424.569 246.225 426.204C247.86 427.838 250.077 428.758 252.389 428.76H859.389C860.649 428.76 861.895 428.486 863.04 427.958C864.185 427.43 865.201 426.659 866.019 425.7C866.088 425.625 866.152 425.545 866.209 425.46C866.729 424.824 867.151 424.112 867.459 423.35C867.898 422.302 868.122 421.176 868.119 420.04V8.72002C868.116 6.40636 867.195 4.18835 865.558 2.55328C863.921 0.918219 861.702 -0.000133874 859.389 1.46379e-08ZM865.629 420.04C865.63 421.257 865.271 422.446 864.599 423.46C864.001 424.352 863.19 425.081 862.239 425.58C861.358 426.035 860.38 426.272 859.389 426.27H252.389C250.737 426.268 249.153 425.611 247.985 424.443C246.818 423.275 246.161 421.692 246.159 420.04V8.72002C246.161 7.06833 246.818 5.48487 247.985 4.31696C249.153 3.14904 250.737 2.49203 252.389 2.49002H859.389C861.042 2.48981 862.628 3.14579 863.798 4.31389C864.968 5.48199 865.626 7.06671 865.629 8.72002V420.04Z" fill="#3F3D56"/>
<path id="WindowBarTop" d="M866.868 34.9492H244.911V37.442H866.868V34.9492Z" fill="#3F3D56"/>
<path id="WindowButton03" d="M266.1 26.1745C270.231 26.1745 273.579 22.8263 273.579 18.6961C273.579 14.5659 270.231 11.2177 266.1 11.2177C261.97 11.2177 258.622 14.5659 258.622 18.6961C258.622 22.8263 261.97 26.1745 266.1 26.1745Z" fill="#3F3D56"/>
<path id="WindowButton02" d="M287.601 26.1745C291.731 26.1745 295.079 22.8263 295.079 18.6961C295.079 14.5659 291.731 11.2177 287.601 11.2177C283.471 11.2177 280.122 14.5659 280.122 18.6961C280.122 22.8263 283.471 26.1745 287.601 26.1745Z" fill="#3F3D56"/>
<path id="WindowButton01" d="M309.101 26.1745C313.232 26.1745 316.58 22.8263 316.58 18.6961C316.58 14.5659 313.232 11.2177 309.101 11.2177C304.971 11.2177 301.623 14.5659 301.623 18.6961C301.623 22.8263 304.971 26.1745 309.101 26.1745Z" fill="#3F3D56"/>
</g>
<g id="WireFrame">
<g id="WireFrameTop">
<path id="Vector" d="M793.114 215.671H308.114C303.607 215.666 299.286 213.874 296.099 210.687C292.912 207.5 291.119 203.178 291.114 198.671V95.6713C291.119 91.1642 292.912 86.8431 296.099 83.6561C299.286 80.4691 303.607 78.6764 308.114 78.6713H793.114C797.621 78.6764 801.942 80.4691 805.129 83.6561C808.316 86.8431 810.109 91.1642 810.114 95.6713V198.671C810.109 203.178 808.316 207.5 805.129 210.687C801.942 213.874 797.621 215.666 793.114 215.671ZM308.114 80.6713C304.137 80.6758 300.325 82.2576 297.513 85.0697C294.7 87.8818 293.119 91.6945 293.114 95.6713V198.671C293.119 202.648 294.7 206.461 297.513 209.273C300.325 212.085 304.137 213.667 308.114 213.671H793.114C797.091 213.667 800.904 212.085 803.716 209.273C806.528 206.461 808.11 202.648 808.114 198.671V95.6713C808.11 91.6945 806.528 87.8818 803.716 85.0697C800.904 82.2576 797.091 80.6758 793.114 80.6713H308.114Z" fill="#F2F2F2"/>
<path id="Vector_2" d="M297.065 83.3613L296.59 85.3037L808.876 210.643L809.352 208.7L297.065 83.3613Z" fill="#F2F2F2"/>
<path id="Vector_3" d="M804.153 83.3303L296.594 209.071L297.075 211.012L804.634 85.2717L804.153 83.3303Z" fill="#F2F2F2"/>
</g>
<g id="WireFrameBottomMiddle">
<path id="Vector_4" d="M612.114 401.671H505.114C500.607 401.666 496.286 399.874 493.099 396.687C489.912 393.5 488.119 389.178 488.114 384.671V308.671C488.119 304.164 489.912 299.843 493.099 296.656C496.286 293.469 500.607 291.676 505.114 291.671H612.114C616.621 291.676 620.942 293.469 624.129 296.656C627.316 299.843 629.109 304.164 629.114 308.671V384.671C629.109 389.178 627.316 393.5 624.129 396.687C620.942 399.874 616.621 401.666 612.114 401.671ZM505.114 293.671C501.137 293.676 497.325 295.258 494.513 298.07C491.7 300.882 490.119 304.694 490.114 308.671V384.671C490.119 388.648 491.7 392.461 494.513 395.273C497.325 398.085 501.137 399.667 505.114 399.671H612.114C616.091 399.667 619.904 398.085 622.716 395.273C625.528 392.461 627.11 388.648 627.114 384.671V308.671C627.11 304.694 625.528 300.882 622.716 298.07C619.904 295.258 616.091 293.676 612.114 293.671H505.114Z" fill="#F2F2F2"/>
<path id="Vector_5" d="M494.821 296.187L493.591 297.764L621.756 397.742L622.987 396.165L494.821 296.187Z" fill="#F2F2F2"/>
<path id="Vector_6" d="M622.396 296.188L495.913 397.398L497.162 398.96L623.646 297.749L622.396 296.188Z" fill="#F2F2F2"/>
</g>
<g id="WireFrameBottomLeft">
<path id="Vector_7" d="M415.114 401.671H308.114C303.607 401.666 299.286 399.874 296.099 396.687C292.912 393.5 291.119 389.178 291.114 384.671V308.671C291.119 304.164 292.912 299.843 296.099 296.656C299.286 293.469 303.607 291.676 308.114 291.671H415.114C419.621 291.676 423.942 293.469 427.129 296.656C430.316 299.843 432.109 304.164 432.114 308.671V384.671C432.109 389.178 430.316 393.5 427.129 396.687C423.942 399.874 419.621 401.666 415.114 401.671ZM308.114 293.671C304.137 293.676 300.325 295.258 297.513 298.07C294.7 300.882 293.119 304.694 293.114 308.671V384.671C293.119 388.648 294.7 392.461 297.513 395.273C300.325 398.085 304.137 399.667 308.114 399.671H415.114C419.091 399.667 422.904 398.085 425.716 395.273C428.528 392.461 430.11 388.648 430.114 384.671V308.671C430.11 304.694 428.528 300.882 425.716 298.07C422.904 295.258 419.091 293.676 415.114 293.671H308.114Z" fill="#F2F2F2"/>
<path id="Vector_8" d="M297.82 296.187L296.59 297.764L424.756 397.743L425.986 396.166L297.82 296.187Z" fill="#F2F2F2"/>
<path id="Vector_9" d="M425.396 296.188L298.913 397.398L300.162 398.96L426.646 297.749L425.396 296.188Z" fill="#F2F2F2"/>
</g>
<g id="WireFrameBottomRight">
<path id="Vector_10" d="M793.114 401.671H686.114C681.607 401.666 677.286 399.874 674.099 396.687C670.912 393.5 669.119 389.178 669.114 384.671V308.671C669.119 304.164 670.912 299.843 674.099 296.656C677.286 293.469 681.607 291.676 686.114 291.671H793.114C797.621 291.676 801.942 293.469 805.129 296.656C808.316 299.843 810.109 304.164 810.114 308.671V384.671C810.109 389.178 808.316 393.5 805.129 396.687C801.942 399.874 797.621 401.666 793.114 401.671ZM686.114 293.671C682.137 293.676 678.325 295.258 675.513 298.07C672.7 300.882 671.119 304.694 671.114 308.671V384.671C671.119 388.648 672.7 392.461 675.513 395.273C678.325 398.085 682.137 399.667 686.114 399.671H793.114C797.091 399.667 800.904 398.085 803.716 395.273C806.528 392.461 808.11 388.648 808.114 384.671V308.671C808.11 304.694 806.528 300.882 803.716 298.07C800.904 295.258 797.091 293.676 793.114 293.671H686.114Z" fill="#F2F2F2"/>
<path id="Vector_11" d="M675.822 296.186L674.592 297.763L802.757 397.741L803.987 396.164L675.822 296.186Z" fill="#F2F2F2"/>
<path id="Vector_12" d="M803.396 296.188L676.913 397.398L678.162 398.96L804.646 297.749L803.396 296.188Z" fill="#F2F2F2"/>
</g>
</g>
<g id="RedImageRight">
<path id="RedImageRightFill" d="M627.114 474.171H520.114C515.74 474.166 511.546 472.426 508.452 469.333C505.359 466.24 503.619 462.046 503.614 457.671V381.671C503.619 377.297 505.359 373.103 508.452 370.01C511.546 366.916 515.74 365.176 520.114 365.171H627.114C631.489 365.176 635.683 366.916 638.776 370.01C641.869 373.103 643.609 377.297 643.614 381.671V457.671C643.609 462.046 641.869 466.24 638.776 469.333C635.683 472.426 631.489 474.166 627.114 474.171Z" fill="#DF2935"/>
<path id="RedImageRightGround" d="M683 475.671H464C463.735 475.671 463.48 475.566 463.293 475.378C463.105 475.191 463 474.937 463 474.671C463 474.406 463.105 474.152 463.293 473.964C463.48 473.777 463.735 473.671 464 473.671H683C683.265 473.671 683.52 473.777 683.707 473.964C683.895 474.152 684 474.406 684 474.671C684 474.937 683.895 475.191 683.707 475.378C683.52 475.566 683.265 475.671 683 475.671Z" fill="#CCCCCC"/>
<path id="RedImageRightText02" d="M587.567 414.171H559.567C557.445 414.171 555.41 413.329 553.91 411.828C552.41 410.328 551.567 408.293 551.567 406.171C551.567 404.05 552.41 402.015 553.91 400.514C555.41 399.014 557.445 398.171 559.567 398.171H587.567C589.689 398.171 591.723 399.014 593.224 400.514C594.724 402.015 595.567 404.05 595.567 406.171C595.567 408.293 594.724 410.328 593.224 411.828C591.723 413.329 589.689 414.171 587.567 414.171Z" fill="white"/>
<path id="RedImageRightText01" d="M604.114 441.171H543.114C540.992 441.171 538.958 440.329 537.457 438.828C535.957 437.328 535.114 435.293 535.114 433.171C535.114 431.05 535.957 429.015 537.457 427.514C538.958 426.014 540.992 425.171 543.114 425.171H604.114C606.236 425.171 608.271 426.014 609.771 427.514C611.271 429.015 612.114 431.05 612.114 433.171C612.114 435.293 611.271 437.328 609.771 438.828C608.271 440.329 606.236 441.171 604.114 441.171Z" fill="white"/>
</g>
<g id="RedImageLeft">
<path id="RedImageLeftFill" d="M432.114 416.171H325.114C320.74 416.166 316.546 414.426 313.452 411.333C310.359 408.24 308.619 404.046 308.614 399.671V323.671C308.619 319.297 310.359 315.103 313.452 312.01C316.546 308.916 320.74 307.176 325.114 307.171H432.114C436.489 307.176 440.683 308.916 443.776 312.01C446.869 315.103 448.609 319.297 448.614 323.671V399.671C448.609 404.046 446.869 408.24 443.776 411.333C440.683 414.426 436.489 416.166 432.114 416.171Z" fill="#DF2935"/>
<path id="RedImageLeftText02" d="M392.567 356.171H364.567C362.445 356.171 360.41 355.329 358.91 353.828C357.41 352.328 356.567 350.293 356.567 348.171C356.567 346.05 357.41 344.015 358.91 342.514C360.41 341.014 362.445 340.171 364.567 340.171H392.567C394.689 340.171 396.723 341.014 398.224 342.514C399.724 344.015 400.567 346.05 400.567 348.171C400.567 350.293 399.724 352.328 398.224 353.828C396.723 355.329 394.689 356.171 392.567 356.171Z" fill="white"/>
<path id="RedImageLeftText01" d="M409.114 383.171H348.114C345.992 383.171 343.958 382.329 342.457 380.828C340.957 379.328 340.114 377.293 340.114 375.171C340.114 373.05 340.957 371.015 342.457 369.514C343.958 368.014 345.992 367.171 348.114 367.171H409.114C411.236 367.171 413.271 368.014 414.771 369.514C416.271 371.015 417.114 373.05 417.114 375.171C417.114 377.293 416.271 379.328 414.771 380.828C413.271 382.329 411.236 383.171 409.114 383.171Z" fill="white"/>
</g>
<g id="Person">
<path id="PersonLegRight" d="M301.345 346.608V334.348L254.057 328.515L254.058 346.61L301.345 346.608Z" fill="#A0616A"/>
<path id="PersonFootRight" d="M312.728 310.703L312.73 349.234L297.843 349.235L297.842 325.591C297.841 321.643 299.41 317.856 302.201 315.064C304.993 312.272 308.78 310.704 312.728 310.703V310.703V310.703Z" fill="#2F2E41"/>
<path id="PersonLegLeft" d="M90.755 514.923L103.015 514.922L108.847 467.634L90.753 467.635L90.755 514.923Z" fill="#A0616A"/>
<path id="PersonFootLeft" d="M126.659 526.305L88.1286 526.307L88.128 511.42L111.772 511.419C115.72 511.419 119.507 512.987 122.299 515.779C125.091 518.57 126.659 522.357 126.659 526.305V526.305Z" fill="#2F2E41"/>
<path id="PersonLegs" d="M105.917 497.882C105.771 497.882 105.624 497.875 105.476 497.863L88.778 496.472C88.0858 496.415 87.4124 496.218 86.7986 495.893C86.1847 495.568 85.643 495.122 85.2063 494.582C84.7696 494.042 84.4469 493.419 84.2576 492.751C84.0684 492.082 84.0166 491.383 84.1054 490.694L92.7709 423.295C92.8044 423.033 92.8046 422.768 92.7714 422.506L79.0062 313.876C78.9154 313.159 78.9771 312.43 79.1873 311.737C79.3975 311.045 79.7515 310.405 80.2261 309.859C80.7006 309.313 81.2851 308.873 81.9413 308.568C82.5975 308.263 83.3106 308.101 84.0341 308.09L132.727 307.4C132.975 307.399 133.223 307.413 133.469 307.443L133.602 307.48L142.968 311.534L279.13 326.53C280.368 326.693 281.505 327.3 282.329 328.238C283.154 329.176 283.61 330.381 283.614 331.629V349.161C283.614 349.886 283.46 350.603 283.164 351.264C282.867 351.926 282.433 352.518 281.892 353C281.35 353.482 280.713 353.845 280.021 354.063C279.33 354.282 278.6 354.352 277.879 354.268L199.217 345.099C198.82 345.051 198.416 345.082 198.031 345.19L135.826 362.333C135.259 362.491 134.748 362.805 134.352 363.241C133.957 363.676 133.692 364.214 133.589 364.793L110.969 493.63C110.763 494.821 110.143 495.9 109.218 496.678C108.294 497.456 107.125 497.883 105.917 497.882V497.882Z" fill="#2F2E41"/>
<path id="PersonHair" d="M101.927 208.979C120.465 208.979 135.493 193.951 135.493 175.413C135.493 156.875 120.465 141.846 101.927 141.846C83.3883 141.846 68.3601 156.875 68.3601 175.413C68.3601 193.951 83.3883 208.979 101.927 208.979Z" fill="#2F2E41"/>
<path id="PersonHairBraid" d="M90.1846 153.974C97.8556 153.974 104.074 147.755 104.074 140.084C104.074 132.413 97.8556 126.195 90.1846 126.195C82.5136 126.195 76.295 132.413 76.295 140.084C76.295 147.755 82.5136 153.974 90.1846 153.974Z" fill="#2F2E41"/>
<path id="PersonHairBraidStrang" d="M71.6651 132.561C71.6653 129.128 72.9369 125.816 75.2346 123.265C77.5323 120.714 80.6933 119.104 84.1078 118.746C83.6272 118.697 83.1443 118.671 82.6611 118.671C78.9794 118.674 75.4495 120.139 72.8473 122.744C70.245 125.348 68.7833 128.879 68.7833 132.561C68.7833 136.243 70.245 139.774 72.8473 142.378C75.4495 144.983 78.9794 146.447 82.6611 146.45C83.1443 146.45 83.6272 146.425 84.1078 146.375C80.6933 146.017 77.5323 144.408 75.2346 141.857C72.9369 139.306 71.6653 135.994 71.6651 132.561V132.561Z" fill="#2F2E41"/>
<path id="PersonBody" d="M105.881 326.341C97.5427 326.341 88.2678 324.033 78.6122 317.595L78.4487 317.486L78.4033 317.295C78.3134 316.918 69.4299 279.318 69.2548 250.196C69.201 245.082 70.3709 240.029 72.6671 235.46C74.9632 230.89 78.319 226.936 82.4543 223.927C86.4289 220.95 91.0583 218.967 95.9557 218.143C100.853 217.32 105.876 217.68 110.606 219.194C111.231 219.392 111.858 219.605 112.486 219.831C119.043 222.28 124.616 226.812 128.35 232.732C132.083 238.652 133.772 245.634 133.155 252.606C131.889 267.994 131.381 296.019 142.211 310.826L142.464 311.172L142.16 311.475C141.951 311.683 126.89 326.341 105.881 326.341Z" fill="#CCCCCC"/>
<path id="PersonHead" d="M101.831 210.658C115.395 210.658 126.392 199.661 126.392 186.097C126.392 172.532 115.395 161.536 101.831 161.536C88.266 161.536 77.2697 172.532 77.2697 186.097C77.2697 199.661 88.266 210.658 101.831 210.658Z" fill="#A0616A"/>
<path id="PersonHandLeft" d="M71.7461 184.476C72.0986 185.903 72.1338 187.39 71.8494 188.832C71.565 190.275 70.9677 191.637 70.0998 192.824C69.2319 194.01 68.1144 194.992 66.826 195.7C65.5375 196.408 64.1096 196.825 62.6427 196.921L53.1658 231.376L40.9297 217.408L51.805 186.83C51.8065 184.355 52.7159 181.967 54.3608 180.117C56.0057 178.268 58.2718 177.086 60.7298 176.796C63.1877 176.506 65.6668 177.127 67.6971 178.543C69.7275 179.958 71.1681 182.069 71.7461 184.476V184.476Z" fill="#A0616A"/>
<path id="PersonArmLeft" d="M34.4918 260.397C32.9705 260.391 31.4727 260.021 30.124 259.317C28.7752 258.613 27.6148 257.596 26.74 256.352C25.8652 255.107 25.3014 253.671 25.096 252.163C24.8905 250.656 25.0494 249.121 25.5592 247.688L43.5753 197.067C44.0026 195.886 44.8549 194.908 45.9655 194.322C47.0761 193.737 48.3651 193.587 49.5804 193.902L62.7096 197.377C63.3853 197.556 64.0162 197.875 64.5616 198.312C65.107 198.749 65.555 199.295 65.8768 199.916C66.1986 200.537 66.387 201.217 66.4301 201.915C66.4731 202.613 66.3697 203.312 66.1266 203.967L54.548 235.177L74.1876 228.93C75.8679 228.396 77.6407 228.215 79.3943 228.399C81.1478 228.584 82.8442 229.129 84.3766 230.001C85.909 230.874 87.2442 232.054 88.2981 233.467C89.352 234.881 90.1017 236.498 90.5001 238.215C90.8985 239.933 90.9369 241.714 90.6129 243.448C90.2889 245.181 89.6095 246.828 88.6175 248.286C87.6255 249.744 86.3424 250.98 84.849 251.918C83.3556 252.855 81.6843 253.473 79.9403 253.733L35.9247 260.29C35.4504 260.361 34.9715 260.397 34.4918 260.397V260.397Z" fill="#CCCCCC"/>
<path id="PersonPony" d="M105.831 182.185C118.616 182.185 128.981 175.967 128.981 168.296C128.981 160.625 118.616 154.406 105.831 154.406C93.0463 154.406 82.682 160.625 82.682 168.296C82.682 175.967 93.0463 182.185 105.831 182.185Z" fill="#2F2E41"/>
<path id="PersonHandRight" d="M176.298 334.506C174.88 334.12 173.563 333.428 172.441 332.478C171.319 331.529 170.419 330.344 169.804 329.009C169.189 327.674 168.874 326.22 168.882 324.75C168.89 323.28 169.22 321.829 169.849 320.5L144.348 295.467L162.503 291.566L183.936 315.936C186.098 317.141 187.743 319.097 188.56 321.433C189.376 323.77 189.307 326.325 188.365 328.614C187.424 330.903 185.676 332.767 183.452 333.853C181.227 334.939 178.682 335.171 176.298 334.506Z" fill="#A0616A"/>
<path id="PersonArmRight" d="M164.527 320.886C163.844 320.888 163.169 320.739 162.551 320.449C161.932 320.159 161.386 319.736 160.951 319.209L133.112 285.435L111.324 243.59C110.642 241.487 110.474 239.251 110.833 237.07C111.193 234.889 112.07 232.825 113.391 231.052C114.658 229.33 116.322 227.939 118.242 226.997C120.161 226.055 122.28 225.59 124.417 225.642C125.498 225.665 126.574 225.788 127.631 226.01C129.794 226.496 131.802 227.515 133.472 228.973C135.141 230.432 136.42 232.284 137.192 234.363L155.65 277.726L177.77 305.63C178.525 306.588 178.873 307.804 178.738 309.015C178.603 310.227 177.996 311.337 177.049 312.105L167.423 319.868C166.603 320.529 165.58 320.888 164.527 320.886V320.886Z" fill="#CCCCCC"/>
<path id="PersonGround" d="M220 528.671H1C0.734784 528.671 0.480429 528.566 0.292892 528.378C0.105356 528.191 0 527.937 0 527.671C0 527.406 0.105356 527.152 0.292892 526.964C0.480429 526.777 0.734784 526.671 1 526.671H220C220.265 526.671 220.52 526.777 220.707 526.964C220.895 527.152 221 527.406 221 527.671C221 527.937 220.895 528.191 220.707 528.378C220.52 528.566 220.265 528.671 220 528.671Z" fill="#CCCCCC"/>
</g>
<g id="GrayImage">
<path id="GrayImageFill" d="M816.114 445.171H709.114C704.74 445.166 700.546 443.426 697.452 440.333C694.359 437.24 692.619 433.046 692.614 428.671V352.671C692.619 348.297 694.359 344.103 697.452 341.01C700.546 337.916 704.74 336.176 709.114 336.171H816.114C820.489 336.176 824.683 337.916 827.776 341.01C830.869 344.103 832.609 348.297 832.614 352.671V428.671C832.609 433.046 830.869 437.24 827.776 440.333C824.683 443.426 820.489 445.166 816.114 445.171Z" fill="#E6E6E6"/>
<path id="GrayImageText02" d="M776.567 385.171H748.567C746.445 385.171 744.41 384.329 742.91 382.828C741.41 381.328 740.567 379.293 740.567 377.171C740.567 375.05 741.41 373.015 742.91 371.514C744.41 370.014 746.445 369.171 748.567 369.171H776.567C778.689 369.171 780.723 370.014 782.224 371.514C783.724 373.015 784.567 375.05 784.567 377.171C784.567 379.293 783.724 381.328 782.224 382.828C780.723 384.329 778.689 385.171 776.567 385.171Z" fill="white"/>
<path id="GrayImageText01" d="M793.114 412.171H732.114C729.992 412.171 727.958 411.329 726.457 409.828C724.957 408.328 724.114 406.293 724.114 404.171C724.114 402.05 724.957 400.015 726.457 398.514C727.958 397.014 729.992 396.171 732.114 396.171H793.114C795.236 396.171 797.271 397.014 798.771 398.514C800.271 400.015 801.114 402.05 801.114 404.171C801.114 406.293 800.271 408.328 798.771 409.828C797.271 411.329 795.236 412.171 793.114 412.171Z" fill="white"/>
<path id="GrayImageGround" d="M872 446.671H653C652.735 446.671 652.48 446.566 652.293 446.378C652.105 446.191 652 445.937 652 445.671C652 445.406 652.105 445.152 652.293 444.964C652.48 444.777 652.735 444.671 653 444.671H872C872.265 444.671 872.52 444.777 872.707 444.964C872.895 445.152 873 445.406 873 445.671C873 445.937 872.895 446.191 872.707 446.378C872.52 446.566 872.265 446.671 872 446.671Z" fill="#CCCCCC"/>
</g>
<g id="BigImage">
<path id="BigImageFill" d="M813.114 250.171H328.114C323.74 250.166 319.546 248.426 316.452 245.333C313.359 242.24 311.619 238.046 311.614 233.671V130.671C311.619 126.297 313.359 122.103 316.452 119.009C319.546 115.916 323.74 114.176 328.114 114.171H813.114C817.489 114.176 821.683 115.916 824.776 119.009C827.869 122.103 829.609 126.297 829.614 130.671V233.671C829.609 238.046 827.869 242.24 824.776 245.333C821.683 248.426 817.489 250.166 813.114 250.171V250.171Z" fill="white"/>
<path id="BigImageMountains" d="M679.384 248.407V249.671H465.684V248.348L466.834 246.72L534.584 151.073C534.898 150.639 535.31 150.285 535.788 150.04C536.265 149.796 536.793 149.669 537.329 149.669C537.865 149.669 538.394 149.796 538.871 150.04C539.348 150.285 539.761 150.639 540.074 151.073L585.504 215.211L617.844 169.956C618.158 169.523 618.57 169.171 619.046 168.928C619.523 168.685 620.05 168.559 620.584 168.559C621.119 168.559 621.646 168.685 622.122 168.928C622.598 169.171 623.01 169.523 623.324 169.956L678.234 246.789L679.384 248.407Z" fill="#DF2935"/>
<path id="BigImageSun" d="M465.241 184.769C478.978 184.769 490.114 173.632 490.114 159.895C490.114 146.158 478.978 135.022 465.241 135.022C451.504 135.022 440.368 146.158 440.368 159.895C440.368 173.632 451.504 184.769 465.241 184.769Z" fill="#DF2935"/>
<path id="BigImageBorder" d="M813.114 250.671H328.114C323.607 250.666 319.286 248.874 316.099 245.687C312.912 242.5 311.119 238.178 311.114 233.671V130.671C311.119 126.164 312.912 121.843 316.099 118.656C319.286 115.469 323.607 113.676 328.114 113.671H813.114C817.621 113.676 821.942 115.469 825.129 118.656C828.316 121.843 830.109 126.164 830.114 130.671V233.671C830.109 238.178 828.316 242.5 825.129 245.687C821.942 248.874 817.621 250.666 813.114 250.671ZM328.114 115.671C324.137 115.676 320.325 117.258 317.513 120.07C314.7 122.882 313.119 126.694 313.114 130.671V233.671C313.119 237.648 314.7 241.461 317.513 244.273C320.325 247.085 324.137 248.667 328.114 248.671H813.114C817.091 248.667 820.904 247.085 823.716 244.273C826.528 241.461 828.11 237.648 828.114 233.671V130.671C828.11 126.694 826.528 122.882 823.716 120.07C820.904 117.258 817.091 115.676 813.114 115.671H328.114Z" fill="#3F3D56"/>
</g>
</g>
<defs>
<clipPath id="clip0">
<rect width="873" height="528.671" fill="white"/>
</clipPath>
</defs>
</svg>
