<svg width="833" height="646" viewBox="0 0 833 646" fill="none" xmlns="http://www.w3.org/2000/svg">
<g id="undraw_adventure_map_hnin 1" clip-path="url(#clip0)">
<g id="Flowers">
<path id="Flower202" d="M526.378 644.357C526.378 644.357 513.625 612.966 551.883 589.423L526.378 644.357Z" fill="#E6E6E6"/>
<path id="Flower201" d="M510.694 643.786C510.694 643.786 506.804 621.412 476.694 621.604L510.694 643.786Z" fill="#E6E6E6"/>
<path id="Flower102" d="M798.333 644.357C798.333 644.357 781.484 602.885 832.028 571.782L798.333 644.357Z" fill="#E6E6E6"/>
<path id="Flower101" d="M777.612 643.602C777.612 643.602 772.473 614.043 732.694 614.297Z" fill="#E6E6E6"/>
</g>
<g id="Path">
<path id="Mark02" d="M483.215 179.569L466.576 170.731L467.821 170.069L484.46 178.908L483.215 179.569Z" fill="#CBCBCB"/>
<path id="Mark01" d="M468.701 179.569L467.457 178.908L484.095 170.069L485.34 170.731L468.701 179.569Z" fill="#CBCBCB"/>
<path id="Trail03" d="M344.861 111.062L344.058 112.629L348.758 115.038L349.561 113.471L344.861 111.062Z" fill="#CBCBCB"/>
<path id="Trail02" d="M442.314 162.978L432.959 158.184L433.762 156.617L443.117 161.411L442.314 162.978ZM423.603 153.39L414.247 148.596L415.05 147.029L424.406 151.823L423.603 153.39ZM404.892 143.802L395.536 139.008L396.339 137.441L405.695 142.235L404.892 143.802ZM386.181 134.214L376.825 129.42L377.628 127.853L386.984 132.647L386.181 134.214ZM367.469 124.626L358.114 119.832L358.917 118.265L368.272 123.059L367.469 124.626Z" fill="#CBCBCB"/>
<path id="Trail01" d="M452.473 166.205L451.67 167.772L456.37 170.181L457.173 168.614L452.473 166.205Z" fill="#CBCBCB"/>
<path id="FullMoon" d="M97.5711 228.92C97.5711 229.47 97.5533 230.016 97.5176 230.556C97.3178 233.675 96.53 236.728 95.1957 239.553C95.1853 239.577 95.1732 239.6 95.1629 239.622C95.1008 239.753 95.037 239.884 94.9715 240.014C94.5747 240.813 94.1344 241.59 93.6527 242.341C91.4526 245.789 88.4369 248.642 84.8723 250.648C81.3077 252.654 77.3038 253.751 73.2145 253.843L73.461 268.02L76.676 266.327L77.2501 267.418L73.4852 269.4L73.9454 295.731L73.9506 296.083L71.4648 296.636L71.4699 296.283L72.2526 253.844C68.9611 253.797 65.7118 253.096 62.6933 251.783C59.6748 250.47 56.9472 248.57 54.669 246.194C54.5122 246.032 54.357 245.864 54.2053 245.699L54.1881 245.68C52.2899 243.61 50.7548 241.234 49.6474 238.653C49.6716 238.681 49.6974 238.707 49.7216 238.734C47.2188 232.882 47.0491 226.294 49.2471 220.32C51.4452 214.346 55.8446 209.439 61.5438 206.605C61.63 206.562 61.718 206.52 61.8042 206.477C67.4418 203.762 73.8938 203.264 79.8815 205.081C85.8692 206.899 90.9554 210.9 94.132 216.291C94.2837 216.546 94.4303 216.807 94.5716 217.069C96.5448 220.707 97.576 224.781 97.5711 228.92V228.92Z" fill="#E5E5E5"/>
<path id="MoonBorder" d="M94.2155 239.636C112.261 239.636 126.89 225.007 126.89 206.962C126.89 188.916 112.261 174.287 94.2155 174.287C76.17 174.287 61.5413 188.916 61.5413 206.962C61.5413 225.007 76.17 239.636 94.2155 239.636Z" fill="#E5E5E5"/>
<path id="Moon" opacity="0.2" d="M70.0899 185.138C67.0421 192.267 66.6287 200.248 68.9234 207.654C71.2182 215.06 76.0716 221.409 82.6164 225.566C89.1612 229.723 96.971 231.417 104.65 230.346C112.329 229.275 119.377 225.508 124.535 219.719C122.673 224.075 119.886 227.974 116.368 231.146C112.85 234.317 108.684 236.686 104.16 238.088C99.635 239.491 94.8597 239.892 90.1644 239.265C85.4691 238.639 80.9663 236.999 76.9678 234.459C72.9693 231.919 69.5707 228.541 67.0076 224.557C64.4445 220.574 62.7781 216.08 62.1238 211.389C61.4696 206.697 61.8432 201.92 63.2187 197.387C64.5942 192.854 66.9387 188.675 70.0899 185.138V185.138Z" fill="black"/>
<path id="DeadTree" d="M95.983 297.986L92.646 297.05L92.653 296.691L93.653 242.341L93.703 239.631L93.704 239.552L93.879 230.056L94.132 216.293V216.291L94.304 206.962H94.396L94.572 217.069L94.801 230.224L94.965 239.558V239.627L94.972 240.012V240.014L95.289 258.209L95.322 260.017L95.977 297.624L95.983 297.986Z" fill="#3F3D56"/>
<path id="Branch" d="M99.5019 255.991L94.1008 258.834L94.8535 260.264L100.255 257.42L99.5019 255.991Z" fill="#3F3D56"/>
<path id="River" d="M517.769 101.216C476.529 98.7782 435.164 99.414 394.018 103.119C374.187 104.911 354.04 106.847 334.574 111.173C318.896 114.658 300.699 120.547 290.93 134.264C288.884 137.027 287.506 140.227 286.902 143.612C286.298 146.998 286.486 150.477 287.45 153.777C289.779 161.597 295.573 168.106 301.744 173.203C315.947 184.937 333.569 191.764 349.31 201.086C378.05 218.106 404.353 241.046 421.236 270.187C428.665 283.01 435.732 300.061 427.459 314.191C419.355 328.033 401.264 332.802 386.51 335.051C368.017 337.87 348.969 337.106 330.399 335.527C310.041 333.629 289.796 330.664 269.748 326.644C230.473 319.102 191.556 309.509 151.735 305.147C131.769 302.798 111.634 302.216 91.5655 303.407C73.4412 304.63 55.1616 307.496 38.1351 314.031C25.0148 319.067 11.0291 326.687 3.94201 339.393C-2.88964 351.642 -0.225078 365.767 7.21374 377.069C16.1642 390.666 30.1211 399.984 44.6317 406.794C61.1533 414.548 78.8247 419.575 96.5187 423.849C105.493 426.017 114.515 427.977 123.538 429.927C125.421 430.333 126.225 427.442 124.336 427.034C106.14 423.102 87.8908 419.157 70.1465 413.465C53.726 408.198 36.9219 401.451 23.475 390.391C12.5964 381.444 2.25313 368.374 2.89523 353.515C3.54252 338.536 16.1106 328.077 28.429 321.639C43.8236 313.594 61.314 309.675 78.4526 307.627C98.0765 305.44 117.867 305.171 137.543 306.823C177.27 309.846 216.109 318.896 255.059 326.789C292.899 334.457 331.92 341.558 370.698 339.591C386.068 338.812 402.537 336.609 416.109 328.851C422.322 325.299 427.925 320.289 431.083 313.77C433.928 307.568 434.828 300.649 433.664 293.926C431.463 279.156 422.69 265.46 413.937 253.695C404.342 240.935 393.212 229.406 380.798 219.367C367.173 208.403 352.483 198.833 336.948 190.802C328.71 186.465 320.355 182.294 312.504 177.27C304.976 172.453 297.55 166.657 292.953 158.838C288.977 152.074 288.248 144.355 292.389 137.496C296.578 130.558 303.794 125.719 310.911 122.183C328.057 113.664 347.991 111.384 366.75 109.047C407.03 104.047 447.623 102.023 488.201 102.991C498.064 103.223 507.92 103.632 517.769 104.216C519.698 104.33 519.691 101.329 517.769 101.216V101.216Z" fill="black"/>
<g id="Mountains">
<path id="Sun" d="M398.219 53.1814C408.584 53.1814 416.987 44.7785 416.987 34.413C416.987 24.0474 408.584 15.6445 398.219 15.6445C387.853 15.6445 379.45 24.0474 379.45 34.413C379.45 44.7785 387.853 53.1814 398.219 53.1814Z" fill="#FF6583"/>
<path id="Mountain02" d="M457.073 92.2474H365C364.885 92.2488 364.77 92.2397 364.656 92.2201L408.203 16.7959C408.469 16.326 408.854 15.9351 409.321 15.6632C409.787 15.3912 410.317 15.2479 410.857 15.2479C411.396 15.2479 411.926 15.3912 412.393 15.6632C412.859 15.9351 413.244 16.326 413.51 16.7959L442.734 67.4096L444.134 69.8312L457.073 92.2474Z" fill="#388697"/>
<path id="Mountain01" d="M508.335 92.2482H428.701L444.132 69.8339L445.242 68.2186L465.35 39.0087C465.706 38.5618 466.151 38.1948 466.658 37.9314C467.165 37.6681 467.721 37.5144 468.291 37.4804C468.861 37.4463 469.432 37.5327 469.967 37.7338C470.501 37.935 470.988 38.2464 471.394 38.6478C471.498 38.7619 471.595 38.8824 471.683 39.0087L508.335 92.2482Z" fill="#388697"/>
<path id="Birds03" d="M491.607 5.05212L497.837 0.069777C492.997 -0.464143 491.009 2.17515 490.195 4.26417C486.414 2.69427 482.299 4.75169 482.299 4.75169L494.763 9.27655C494.134 7.59706 493.039 6.13165 491.607 5.05212V5.05212Z" fill="#3F3D56"/>
<path id="Birds02" d="M461.375 20.8254L467.605 15.843C462.765 15.3091 460.777 17.9484 459.963 20.0374C456.182 18.4675 452.067 20.525 452.067 20.525L464.531 25.0498C463.902 23.3703 462.807 21.9049 461.375 20.8254V20.8254Z" fill="#3F3D56"/>
<path id="Birds01" d="M491.607 45.7997L497.837 40.8174C492.997 40.2834 491.009 42.9227 490.195 45.0117C486.414 43.4418 482.299 45.4993 482.299 45.4993L494.763 50.0241C494.134 48.3446 493.039 46.8792 491.607 45.7997V45.7997Z" fill="#3F3D56"/>
</g>
<g id="Boat">
<path id="Vector" d="M376.975 265.235C385.702 269.597 391.015 275.358 391.015 281.677C391.015 295.289 366.384 306.323 336 306.323C322.79 306.323 310.671 304.236 301.187 300.759C311.26 305.794 325.882 308.964 342.162 308.964C372.545 308.964 397.177 297.929 397.177 284.317C397.177 276.623 389.304 269.755 376.975 265.235Z" fill="#F1F1F1"/>
<path id="Vector_2" d="M396.387 274.585C406.235 279.507 412.23 286.008 412.23 293.138C412.23 308.497 384.437 320.948 350.152 320.948C335.246 320.948 321.571 318.593 310.87 314.67C322.236 320.351 338.735 323.928 357.105 323.928C391.389 323.928 419.183 311.477 419.183 296.117C419.183 287.436 410.299 279.685 396.387 274.585Z" fill="#F1F1F1"/>
<path id="Vector_3" d="M369.545 269.353C375.694 272.426 379.437 276.485 379.437 280.937C379.437 290.527 362.084 298.301 340.678 298.301C332.338 298.409 324.042 297.083 316.151 294.381C323.248 297.928 333.549 300.162 345.019 300.162C366.425 300.162 383.778 292.387 383.778 282.797C383.778 277.377 378.232 272.538 369.545 269.353Z" fill="#F1F1F1"/>
<path id="Vector_4" d="M283.155 267.593C283.155 267.593 284.506 287.341 323.237 287.341C361.967 287.341 373.53 267.593 373.53 267.593H283.155Z" fill="#3F3D56"/>
<path id="Vector_5" d="M338.129 215.777C332.537 211.53 325.52 209.61 318.545 210.42C324.778 211.923 330.283 215.573 334.093 220.73C337.903 225.887 339.775 232.221 339.381 238.62C338.987 245.02 336.351 251.076 331.937 255.726C327.523 260.376 321.612 263.323 315.241 264.049C321.335 265.52 327.749 264.849 333.405 262.147C339.062 259.445 343.616 254.878 346.301 249.214C348.987 243.55 349.64 237.134 348.152 231.045C346.664 224.955 343.124 219.564 338.129 215.777V215.777Z" fill="#3F3D56"/>
<path id="Vector_6" d="M325.437 206.856H322.796V269.714H325.437V206.856Z" fill="#3F3D56"/>
</g>
<path id="PathTree03" d="M498.984 160.153L498.969 160.128L498.934 158.593L507.207 146.582L498.944 157.444L498.914 157.768L498.631 145.491L505.777 133.038L498.611 143.335L498.686 117.9L498.685 117.815L498.683 117.898L498.209 137.944L491.696 129.802L498.188 139.671L498.045 150.653L492.053 139.935L498.023 152.267L497.944 158.374L497.725 175.291L497.709 176.555C498.261 176.559 498.807 176.55 499.348 176.527L498.973 160.278L498.984 160.153Z" fill="#CBCBCB"/>
<path id="PathTree02" d="M459.373 165.434L459.359 165.41L459.323 163.875L467.596 151.863L459.333 162.725L459.303 163.05L459.02 150.773L466.166 138.32L459 148.616L459.075 123.181L459.075 123.096L459.072 123.18L458.598 143.226L452.085 135.083L458.577 144.953L458.435 155.934L452.442 145.217L458.413 157.549L458.333 163.655L458.114 180.572L458.098 181.836C458.65 181.841 459.197 181.831 459.737 181.809L459.362 165.56L459.373 165.434Z" fill="#CBCBCB"/>
<path id="PathTree01" d="M478.738 148.71L478.724 148.685L478.688 147.15L486.961 135.139L478.698 146.001L478.668 146.325L478.386 134.048L485.531 121.595L478.365 131.891L478.44 106.457L478.44 106.372L478.438 106.455L477.963 126.501L471.451 118.359L477.942 128.228L477.8 139.21L471.807 128.492L477.778 140.824L477.698 146.931L477.48 163.848L477.464 165.112C478.016 165.116 478.562 165.107 479.103 165.084L478.728 148.835L478.738 148.71Z" fill="#CBCBCB"/>
<path id="PathStart" d="M151.59 441C157.424 441 162.153 436.271 162.153 430.437C162.153 424.603 157.424 419.874 151.59 419.874C145.756 419.874 141.027 424.603 141.027 430.437C141.027 436.271 145.756 441 151.59 441Z" fill="#388697"/>
</g>
<g id="Person">
<path id="PersonLegRight" d="M715.399 625.419L705.62 629.052L686.952 593.062L701.385 587.7L715.399 625.419Z" fill="#FFB7B7"/>
<path id="PersonFootRight" d="M721.415 633.971L689.883 645.686L689.735 645.287C688.526 642.032 688.659 638.43 690.105 635.274C691.552 632.117 694.193 629.664 697.448 628.454L697.448 628.454L716.707 621.299L721.415 633.971Z" fill="#2F2E41"/>
<path id="PersonLegLeft" d="M619.162 635.574L608.73 635.573L603.767 595.335L619.164 595.336L619.162 635.574Z" fill="#FFB7B7"/>
<path id="PersonFootLeft" d="M620.972 645.686L587.334 645.685V645.259C587.335 641.787 588.714 638.457 591.169 636.002C593.625 633.547 596.955 632.167 600.427 632.167H600.428L620.973 632.168L620.972 645.686Z" fill="#2F2E41"/>
<path id="PersonBody" d="M666.924 356.505L663.52 349.697L634.589 364.163L635.44 370.119L629.909 377.352C629.909 377.352 620.549 382.458 622.251 399.476L623.952 415.644L626.08 436.491L611.189 487.972L603.53 556.046L597.999 610.93L624.803 609.654L649.48 520.307L692.877 616.461L722.659 608.803L681.815 513.5L676.71 473.506C676.71 473.506 680.113 452.233 663.946 437.768L666.498 430.109V420.672L675.008 375.65L666.924 356.505Z" fill="#2F2E41"/>
<path id="PersonLegsDivider" opacity="0.2" d="M667.719 453.799L648.999 520.171L649.961 520.443L668.681 454.071L667.719 453.799Z" fill="black"/>
<path id="PersonBelt" d="M666.073 436.491H624.378V440.746H666.073V436.491Z" fill="#3F3D56"/>
<path id="PersonButton" d="M624.378 443.299C625.318 443.299 626.08 441.394 626.08 439.044C626.08 436.694 625.318 434.789 624.378 434.789C623.438 434.789 622.676 436.694 622.676 439.044C622.676 441.394 623.438 443.299 624.378 443.299Z" fill="#3F3D56"/>
<path id="PersonHead" d="M654.06 345.5C665.052 339.491 669.091 325.71 663.083 314.718C657.074 303.726 643.293 299.687 632.301 305.695C621.31 311.704 617.27 325.485 623.279 336.477C629.287 347.469 643.069 351.508 654.06 345.5Z" fill="#FFB7B7"/>
<path id="PersonBraid" d="M677.889 317.5C688.971 317.5 697.955 308.517 697.955 297.435C697.955 286.353 688.971 277.369 677.889 277.369C666.807 277.369 657.823 286.353 657.823 297.435C657.823 308.517 666.807 317.5 677.889 317.5Z" fill="#2F2E41"/>
<path id="PersonBraidStrang" d="M703.353 295.285C704.144 297.944 704.376 300.738 704.033 303.491C703.69 306.243 702.781 308.895 701.361 311.278C699.942 313.662 698.044 315.725 695.787 317.338C693.53 318.95 690.963 320.078 688.248 320.648C685.534 321.219 682.73 321.221 680.015 320.653C677.3 320.086 674.732 318.961 672.473 317.351C670.214 315.741 668.313 313.68 666.891 311.299C665.469 308.917 664.556 306.266 664.21 303.514C665.648 308.341 668.848 312.451 673.176 315.028C677.503 317.605 682.642 318.46 687.571 317.424C692.5 316.388 696.859 313.536 699.782 309.435C702.706 305.334 703.981 300.283 703.353 295.285V295.285Z" fill="#2F2E41"/>
<path id="PersonHair" d="M624.081 319.3C623.492 324.487 624.631 329.723 627.32 334.197C630.009 338.672 634.098 342.134 638.955 344.048C643.811 345.962 649.163 346.221 654.182 344.785C659.2 343.349 663.605 340.297 666.713 336.104C669.822 331.91 671.46 326.808 671.375 321.589C671.29 316.37 669.486 311.324 666.242 307.234C662.998 303.144 658.496 300.238 653.433 298.967C648.37 297.695 643.029 298.129 638.238 300.201C634.276 297.005 629.363 297.996 625.369 301.368C620.852 305.182 619.512 307.801 616.009 314.073C619.453 314.556 620.637 318.817 624.081 319.3Z" fill="#2F2E41"/>
<g id="PersonBackpack">
<path id="Vector_7" d="M707.455 387.511C707.201 394.233 706.698 407.464 706.698 408.139C706.698 408.851 696.668 429.62 692.334 438.558V438.563C692.026 439.193 691.75 439.764 691.505 440.267C691.17 440.961 690.643 441.544 689.986 441.947C689.33 442.35 688.572 442.557 687.802 442.542L668.864 442.202C667.823 442.185 666.83 441.765 666.091 441.032C665.352 440.299 664.924 439.309 664.898 438.268L662.786 354.953C662.779 354.678 662.827 354.405 662.927 354.149C663.027 353.893 663.178 353.66 663.37 353.463C663.561 353.267 663.791 353.11 664.044 353.003C664.297 352.896 664.569 352.841 664.844 352.841H689.266C690.297 352.841 691.308 353.133 692.182 353.681C693.055 354.229 693.757 355.013 694.206 355.941L705.928 380.191C707.027 382.47 707.551 384.983 707.455 387.511V387.511Z" fill="#388697"/>
<path id="Vector_8" d="M664.569 432.551C659.709 429.606 655.343 425.916 651.629 421.615C643 411.91 637.753 399.668 636.674 386.727C635.711 375.655 637.908 367.424 643.204 362.264C649.935 355.705 659.098 356.658 659.485 356.702L659.895 356.749L666.103 362.002L664.346 364.078L658.792 359.378C657.091 359.293 650.15 359.274 645.08 364.234C640.412 368.799 638.496 376.288 639.383 386.492C640.41 398.813 645.394 410.472 653.591 419.729C657.127 423.819 661.273 427.34 665.881 430.169L664.569 432.551Z" fill="#388697"/>
<path id="Vector_9" d="M699.808 400.898L666.719 407.694L666.902 408.582L699.991 401.786L699.808 400.898Z" fill="#3F3D56"/>
<path id="Vector_10" d="M677.999 352.822L677.094 352.859L679.243 405.51L680.149 405.473L677.999 352.822Z" fill="#3F3D56"/>
<path id="Vector_11" d="M707.455 387.511C707.201 394.233 706.698 407.464 706.698 408.139C706.698 408.851 696.668 429.62 692.334 438.558L700.411 391.659C700.724 389.854 701.51 388.165 702.69 386.764C703.869 385.363 705.399 384.301 707.124 383.686C707.396 384.942 707.507 386.227 707.455 387.511Z" fill="#3F3D56"/>
</g>
<path id="PersonHand" d="M657.829 485.8C658.545 484.878 659.049 483.811 659.307 482.673C659.565 481.536 659.571 480.355 659.323 479.216C659.076 478.076 658.582 477.004 657.875 476.076C657.169 475.147 656.267 474.385 655.234 473.843L656.876 455.684L646.084 451.995L644.126 477.672C643.33 479.467 643.22 481.492 643.818 483.363C644.415 485.234 645.678 486.821 647.367 487.822C649.057 488.824 651.055 489.172 652.983 488.799C654.911 488.426 656.636 487.359 657.829 485.8V485.8Z" fill="#FFB7B7"/>
<path id="PersonArm" d="M659.24 468.228L640.116 467.535L640.925 375.312C640.912 372.702 641.719 370.154 643.232 368.028C644.745 365.902 646.888 364.305 649.359 363.464C651.667 362.697 654.161 362.695 656.471 363.457C659.091 364.344 661.341 366.078 662.866 368.385C664.391 370.693 665.104 373.442 664.893 376.2L659.24 468.228Z" fill="#CBCBCB"/>
<path id="PersonGround" d="M827.001 646H446.001C445.736 646 445.481 645.895 445.294 645.707C445.106 645.52 445.001 645.265 445.001 645C445.001 644.735 445.106 644.48 445.294 644.293C445.481 644.105 445.736 644 446.001 644H827.001C827.266 644 827.52 644.105 827.708 644.293C827.895 644.48 828.001 644.735 828.001 645C828.001 645.265 827.895 645.52 827.708 645.707C827.52 645.895 827.266 646 827.001 646Z" fill="#CBCBCB"/>
</g>
</g>
<defs>
<clipPath id="clip0">
<rect width="832.028" height="646" fill="white"/>
</clipPath>
</defs>
</svg>
