<?xml version="1.0" standalone="no"?><svg xmlns="http://www.w3.org/2000/svg" viewBox="0 0 1440 320"><path fill="#9ad4d6" fill-opacity="1" d="M0,64L40,64C80,64,160,64,240,85.3C320,107,400,149,480,181.3C560,213,640,235,720,224C800,213,880,171,960,176C1040,181,1120,235,1200,256C1280,277,1360,267,1400,261.3L1440,256L1440,0L1400,0C1360,0,1280,0,1200,0C1120,0,1040,0,960,0C880,0,800,0,720,0C640,0,560,0,480,0C400,0,320,0,240,0C160,0,80,0,40,0L0,0Z" style="--darkreader-inline-fill:#275f61;" data-darkreader-inline-fill=""></path></svg>